<?xml version="1.0" encoding="UTF-8"?>
<svg version="1.1" xmlns="http://www.w3.org/2000/svg" width="1000" height="448">
<path d="M0 0 C4.333247 0.65407502 5.28818981 2.32856668 7.859375 5.69140625 C9.37922301 7.72553638 9.37922301 7.72553638 12.125 9.6875 C14.46713763 11.62812832 14.99419381 12.52914221 15.3125 15.5 C16.21162109 15.64501953 16.21162109 15.64501953 17.12890625 15.79296875 C19.77268393 16.6490041 20.56698832 17.63530761 22.25 19.8125 C24.68008755 22.8300133 27.27404348 25.08710806 30.3125 27.5 C30.3125 28.16 30.3125 28.82 30.3125 29.5 C30.9725 29.5 31.6325 29.5 32.3125 29.5 C33.64453125 30.890625 33.64453125 30.890625 35.125 32.75 C36.95408258 34.96438569 38.55476301 36.69381041 40.8125 38.5 C43.61813285 40.74450628 45.72392473 43.23122784 47.98046875 46.01171875 C49.26329945 47.62882545 49.26329945 47.62882545 51.3125 48.5 C51.3125 49.16 51.3125 49.82 51.3125 50.5 C51.9725 50.5 52.6325 50.5 53.3125 50.5 C54.66636936 52.15002828 55.99928142 53.8174387 57.3125 55.5 C57.9725 55.83 58.6325 56.16 59.3125 56.5 C59.3125 57.16 59.3125 57.82 59.3125 58.5 C59.9725 58.5 60.6325 58.5 61.3125 58.5 C62.64453125 59.890625 62.64453125 59.890625 64.125 61.75 C65.95408258 63.96438569 67.55476301 65.69381041 69.8125 67.5 C72.61813285 69.74450628 74.72392473 72.23122784 76.98046875 75.01171875 C78.26329945 76.62882545 78.26329945 76.62882545 80.3125 77.5 C80.3125 78.16 80.3125 78.82 80.3125 79.5 C80.9725 79.5 81.6325 79.5 82.3125 79.5 C83.66636936 81.15002828 84.99928142 82.8174387 86.3125 84.5 C86.9725 84.83 87.6325 85.16 88.3125 85.5 C88.3125 86.16 88.3125 86.82 88.3125 87.5 C88.9725 87.5 89.6325 87.5 90.3125 87.5 C91.64453125 88.890625 91.64453125 88.890625 93.125 90.75 C95.60620595 93.76768291 98.2499289 96.06795824 101.3125 98.5 C101.3125 99.16 101.3125 99.82 101.3125 100.5 C101.9725 100.5 102.6325 100.5 103.3125 100.5 C104.66636936 102.15002828 105.99928142 103.8174387 107.3125 105.5 C107.9725 105.83 108.6325 106.16 109.3125 106.5 C109.3125 107.16 109.3125 107.82 109.3125 108.5 C109.9725 108.5 110.6325 108.5 111.3125 108.5 C112.9375 110 112.9375 110 114.3125 111.5 C114.32280746 110.80286896 114.33311493 110.10573792 114.34373474 109.38748169 C114.44162453 102.82462134 114.54412674 96.26185125 114.65183926 89.69914436 C114.70705469 86.32501633 114.76047243 82.9508796 114.80981445 79.57666016 C114.86739667 75.69945734 114.93112566 71.8223977 114.99609375 67.9453125 C115.01280624 66.73070343 115.02951874 65.51609436 115.04673767 64.26467896 C115.06668289 63.14366791 115.08662811 62.02265686 115.10717773 60.86767578 C115.13049416 59.38208664 115.13049416 59.38208664 115.15428162 57.8664856 C115.3125 55.5 115.3125 55.5 116.3125 53.5 C173.0725 53.5 229.8325 53.5 288.3125 53.5 C290.04945729 56.97391457 289.45260863 61.00737381 289.44621277 64.83164978 C289.4496111 66.30111686 289.4496111 66.30111686 289.45307809 67.80027014 C289.45944035 71.10375632 289.45858731 74.40720171 289.45776367 77.71069336 C289.46075376 80.07062331 289.46415594 82.43055276 289.46794128 84.79048157 C289.47587906 90.54773286 289.47899658 96.30497164 289.47955366 102.06222814 C289.48002832 106.74036013 289.48208055 111.41848956 289.48525429 116.09662056 C289.4940635 129.35061581 289.49867322 142.60460295 289.49792381 155.85860115 C289.49786388 156.93104109 289.49786388 156.93104109 289.49780273 158.02514648 C289.49774141 159.0988909 289.49774141 159.0988909 289.49767885 160.19432712 C289.49727226 171.7996022 289.50684437 183.40484485 289.5209411 195.01011055 C289.53529063 206.91713133 289.54221208 218.82413629 289.54134732 230.73116595 C289.54101487 237.41976239 289.54397623 244.10832965 289.55452538 250.79691887 C289.56417147 257.08494152 289.56430962 263.37289216 289.55700874 269.66091728 C289.55595857 271.97367965 289.55835125 274.28644642 289.5643692 276.5992012 C289.57203108 279.74667572 289.56748302 282.8938979 289.55973816 286.04136658 C289.56488172 286.9650914 289.57002529 287.88881623 289.57532471 288.84053272 C289.57072592 289.68128741 289.56612712 290.52204209 289.56138897 291.38827419 C289.56171502 292.47853378 289.56171502 292.47853378 289.56204766 293.59081882 C289.3125 295.5 289.3125 295.5 287.3125 298.5 C285.45300293 298.8742218 285.45300293 298.8742218 283.16992188 298.87231445 C281.88849304 298.88165764 281.88849304 298.88165764 280.58117676 298.89118958 C279.65720093 298.88197983 278.7332251 298.87277008 277.78125 298.86328125 C276.36096497 298.86402901 276.36096497 298.86402901 274.9119873 298.86479187 C272.90793766 298.86244895 270.90388521 298.85270768 268.89990234 298.83618164 C265.82492885 298.81259533 262.75082214 298.81561822 259.67578125 298.82226562 C257.73176564 298.81668892 255.7877537 298.8095791 253.84375 298.80078125 C252.91977417 298.80169266 251.99579834 298.80260406 251.04382324 298.80354309 C250.18953735 298.79401108 249.33525146 298.78447906 248.45507812 298.7746582 C247.70166138 298.77005081 246.94824463 298.76544342 246.17199707 298.76069641 C244.3125 298.5 244.3125 298.5 242.3125 296.5 C242.11935964 293.92904097 242.05198844 291.46626052 242.07199097 288.89450073 C242.06942769 287.70362372 242.06942769 287.70362372 242.06681263 286.48868859 C242.063504 283.81382064 242.07454387 281.13920052 242.08544922 278.46435547 C242.08601304 276.55275478 242.08569735 274.64115366 242.08456421 272.72955322 C242.08398855 267.52732058 242.09577732 262.32517949 242.10971212 257.1229682 C242.122184 251.69104312 242.12338718 246.25911614 242.12576294 240.82717896 C242.13198816 230.53534514 242.14841302 220.24355363 242.16846192 209.95173848 C242.19078857 198.23728969 242.2018062 186.52283892 242.21185279 174.80837417 C242.23277838 150.70555389 242.26946758 126.60279164 242.3125 102.5 C215.9125 102.5 189.5125 102.5 162.3125 102.5 C162.34730469 112.13832031 162.38210938 121.77664062 162.41796875 131.70703125 C162.43329088 137.8001326 162.44785621 143.89322006 162.45898438 149.98632812 C162.47680301 159.6651688 162.49777912 169.34393128 162.53881836 179.02270508 C162.56868945 186.07091014 162.58806754 193.11905192 162.59476548 200.16731852 C162.59868166 203.90047741 162.60790625 207.63345523 162.62969017 211.36655617 C162.65379282 215.53066721 162.65447148 219.69446205 162.65307617 223.85864258 C162.66925491 225.72196228 162.66925491 225.72196228 162.6857605 227.6229248 C162.68163651 228.75454544 162.67751251 229.88616608 162.67326355 231.05207825 C162.67602893 232.03747495 162.67879431 233.02287165 162.68164349 234.03812885 C162.3125 236.5 162.3125 236.5 160.9391222 238.34269238 C159.3125 239.5 159.3125 239.5 156.92578125 239.46484375 C153.63552129 238.2500542 151.92823554 236.57932788 149.5 234.0625 C148.70980469 233.25941406 147.91960938 232.45632812 147.10546875 231.62890625 C145.3125 229.5 145.3125 229.5 145.3125 227.5 C143.9925 226.84 142.6725 226.18 141.3125 225.5 C141.3125 224.84 141.3125 224.18 141.3125 223.5 C139.9925 222.84 138.6725 222.18 137.3125 221.5 C137.3125 220.84 137.3125 220.18 137.3125 219.5 C136.3225 219.17 135.3325 218.84 134.3125 218.5 C132.125 216.5625 132.125 216.5625 130.3125 214.5 C130.3125 213.84 130.3125 213.18 130.3125 212.5 C128.9925 211.84 127.6725 211.18 126.3125 210.5 C126.3125 209.84 126.3125 209.18 126.3125 208.5 C125.3225 208.17 124.3325 207.84 123.3125 207.5 C121.125 205.5625 121.125 205.5625 119.3125 203.5 C119.3125 202.84 119.3125 202.18 119.3125 201.5 C117.9925 200.84 116.6725 200.18 115.3125 199.5 C115.3125 198.84 115.3125 198.18 115.3125 197.5 C113.9925 196.84 112.6725 196.18 111.3125 195.5 C111.3125 194.84 111.3125 194.18 111.3125 193.5 C110.3225 193.17 109.3325 192.84 108.3125 192.5 C108.3125 191.84 108.3125 191.18 108.3125 190.5 C106.9925 189.84 105.6725 189.18 104.3125 188.5 C104.3125 187.84 104.3125 187.18 104.3125 186.5 C102.9925 185.84 101.6725 185.18 100.3125 184.5 C100.3125 183.84 100.3125 183.18 100.3125 182.5 C99.3225 182.17 98.3325 181.84 97.3125 181.5 C95.125 179.5625 95.125 179.5625 93.3125 177.5 C93.3125 176.84 93.3125 176.18 93.3125 175.5 C91.9925 174.84 90.6725 174.18 89.3125 173.5 C89.3125 172.84 89.3125 172.18 89.3125 171.5 C87.9925 170.84 86.6725 170.18 85.3125 169.5 C85.3125 168.84 85.3125 168.18 85.3125 167.5 C84.3225 167.17 83.3325 166.84 82.3125 166.5 C82.3125 165.84 82.3125 165.18 82.3125 164.5 C80.9925 163.84 79.6725 163.18 78.3125 162.5 C78.3125 161.84 78.3125 161.18 78.3125 160.5 C76.9925 159.84 75.6725 159.18 74.3125 158.5 C74.3125 157.84 74.3125 157.18 74.3125 156.5 C73.3225 156.17 72.3325 155.84 71.3125 155.5 C69.125 153.5625 69.125 153.5625 67.3125 151.5 C67.3125 150.84 67.3125 150.18 67.3125 149.5 C65.9925 148.84 64.6725 148.18 63.3125 147.5 C63.3125 146.84 63.3125 146.18 63.3125 145.5 C62.3225 145.17 61.3325 144.84 60.3125 144.5 C58.125 142.5625 58.125 142.5625 56.3125 140.5 C56.3125 139.84 56.3125 139.18 56.3125 138.5 C54.9925 137.84 53.6725 137.18 52.3125 136.5 C52.3125 135.84 52.3125 135.18 52.3125 134.5 C50.9925 133.84 49.6725 133.18 48.3125 132.5 C48.3125 131.84 48.3125 131.18 48.3125 130.5 C47.3225 130.17 46.3325 129.84 45.3125 129.5 C45.3125 128.84 45.3125 128.18 45.3125 127.5 C43.9925 126.84 42.6725 126.18 41.3125 125.5 C41.3125 124.84 41.3125 124.18 41.3125 123.5 C39.9925 122.84 38.6725 122.18 37.3125 121.5 C37.3125 120.84 37.3125 120.18 37.3125 119.5 C36.3225 119.17 35.3325 118.84 34.3125 118.5 C32.125 116.5625 32.125 116.5625 30.3125 114.5 C30.3125 113.84 30.3125 113.18 30.3125 112.5 C28.9925 111.84 27.6725 111.18 26.3125 110.5 C26.3125 109.84 26.3125 109.18 26.3125 108.5 C25.3225 108.17 24.3325 107.84 23.3125 107.5 C21.125 105.5625 21.125 105.5625 19.3125 103.5 C19.3125 102.84 19.3125 102.18 19.3125 101.5 C17.9925 100.84 16.6725 100.18 15.3125 99.5 C15.3125 98.84 15.3125 98.18 15.3125 97.5 C13.9925 96.84 12.6725 96.18 11.3125 95.5 C11.3125 94.84 11.3125 94.18 11.3125 93.5 C10.3225 93.17 9.3325 92.84 8.3125 92.5 C8.3125 91.84 8.3125 91.18 8.3125 90.5 C6.9925 89.84 5.6725 89.18 4.3125 88.5 C4.3125 87.84 4.3125 87.18 4.3125 86.5 C2.9925 85.84 1.6725 85.18 0.3125 84.5 C0.3125 83.84 0.3125 83.18 0.3125 82.5 C-0.53054688 83.1496875 -1.37359375 83.799375 -2.2421875 84.46875 C-3.34876681 85.31275117 -4.45554815 86.15648749 -5.5625 87 C-6.11808594 87.42925781 -6.67367188 87.85851562 -7.24609375 88.30078125 C-11.4609375 91.5 -11.4609375 91.5 -13.6875 91.5 C-13.6875 92.16 -13.6875 92.82 -13.6875 93.5 C-15.1725 93.995 -15.1725 93.995 -16.6875 94.5 C-17.14125 94.974375 -17.595 95.44875 -18.0625 95.9375 C-20.07326214 97.87092514 -22.07802205 98.5831564 -24.6875 99.5 C-24.6875 100.16 -24.6875 100.82 -24.6875 101.5 C-32.11607143 105.78571429 -32.11607143 105.78571429 -35.6875 107.5 C-35.6875 108.16 -35.6875 108.82 -35.6875 109.5 C-37.47786458 110.4765625 -39.26822917 111.453125 -41.05859375 112.4296875 C-42.85368315 113.41410024 -42.85368315 113.41410024 -43.6875 115.5 C-44.6775 115.5 -45.6675 115.5 -46.6875 115.5 C-46.6875 116.16 -46.6875 116.82 -46.6875 117.5 C-51.07211538 120.5 -51.07211538 120.5 -53.6875 120.5 C-53.6875 121.16 -53.6875 121.82 -53.6875 122.5 C-55.34282623 123.51866229 -57.01010138 124.51810813 -58.6875 125.5 C-59.0175 126.16 -59.3475 126.82 -59.6875 127.5 C-61.36584873 128.46024928 -63.04635715 129.41702528 -64.74023438 130.34960938 C-68.48652626 132.56281491 -71.77783253 135.39795968 -75.14453125 138.140625 C-79.37374442 141.5 -79.37374442 141.5 -82.6875 141.5 C-82.6875 142.16 -82.6875 142.82 -82.6875 143.5 C-85.08981522 145.33326488 -87.50377307 147.05230387 -90 148.75 C-91.57155528 149.8380509 -93.14182158 150.92796541 -94.7109375 152.01953125 C-95.53174805 152.59010254 -96.35255859 153.16067383 -97.19824219 153.74853516 C-101.22206706 156.57973559 -105.1734636 159.50665113 -109.125 162.4375 C-117.51638266 168.6470719 -125.94733338 174.7979313 -134.43066406 180.88134766 C-135.98577767 181.99670932 -137.53974761 183.11366673 -139.09277344 184.23193359 C-141.45406942 185.93056777 -143.82004277 187.62246719 -146.1875 189.3125 C-146.91211426 189.83473145 -147.63672852 190.35696289 -148.38330078 190.89501953 C-153.45820193 194.5 -153.45820193 194.5 -155.6875 194.5 C-156.0175 195.49 -156.3475 196.48 -156.6875 197.5 C-160.0625 198.125 -160.0625 198.125 -163.6875 198.5 C-164.3475 197.84 -165.0075 197.18 -165.6875 196.5 C-165.29871812 193.48694043 -164.42293126 192.10314689 -162.6875 189.5 C-162.0275 189.5 -161.3675 189.5 -160.6875 189.5 C-160.3575 188.18 -160.0275 186.86 -159.6875 185.5 C-159.0275 185.5 -158.3675 185.5 -157.6875 185.5 C-157.44902344 184.9534375 -157.21054687 184.406875 -156.96484375 183.84375 C-155.3705163 180.91837853 -153.3870351 178.55461667 -151.25 176 C-148.03411704 172.15872611 -148.03411704 172.15872611 -145.02734375 168.15625 C-144.36412109 167.33640625 -144.36412109 167.33640625 -143.6875 166.5 C-143.0275 166.5 -142.3675 166.5 -141.6875 166.5 C-141.378125 165.88125 -141.06875 165.2625 -140.75 164.625 C-140.0625 163.25 -139.375 161.875 -138.6875 160.5 C-138.0275 160.5 -137.3675 160.5 -136.6875 160.5 C-136.41550781 159.92121094 -136.14351563 159.34242188 -135.86328125 158.74609375 C-132.79935904 152.89308622 -128.39289128 148.07821854 -123.6875 143.5 C-123.130625 142.736875 -122.57375 141.97375 -122 141.1875 C-121.566875 140.630625 -121.13375 140.07375 -120.6875 139.5 C-120.0275 139.5 -119.3675 139.5 -118.6875 139.5 C-118.3575 138.18 -118.0275 136.86 -117.6875 135.5 C-117.0275 135.5 -116.3675 135.5 -115.6875 135.5 C-115.378125 134.88125 -115.06875 134.2625 -114.75 133.625 C-114.0625 132.25 -113.375 130.875 -112.6875 129.5 C-112.0275 129.5 -111.3675 129.5 -110.6875 129.5 C-110.3575 128.51 -110.0275 127.52 -109.6875 126.5 C-109.0275 126.5 -108.3675 126.5 -107.6875 126.5 C-107.3575 125.18 -107.0275 123.86 -106.6875 122.5 C-106.0275 122.5 -105.3675 122.5 -104.6875 122.5 C-104.378125 121.88125 -104.06875 121.2625 -103.75 120.625 C-103.0625 119.25 -102.375 117.875 -101.6875 116.5 C-101.0275 116.5 -100.3675 116.5 -99.6875 116.5 C-99.378125 115.88125 -99.06875 115.2625 -98.75 114.625 C-98.0625 113.25 -97.375 111.875 -96.6875 110.5 C-96.0275 110.5 -95.3675 110.5 -94.6875 110.5 C-95.49479614 108.34601947 -95.49479614 108.34601947 -97.53979492 107.70996094 C-104.3073902 105.69802804 -110.99160064 104.55469774 -118 103.75 C-119.10577393 103.62149658 -120.21154785 103.49299316 -121.35083008 103.3605957 C-129.0464646 102.53211423 -136.01739375 102.32875405 -143.6875 103.5 C-144.80640625 103.61472656 -145.9253125 103.72945313 -147.078125 103.84765625 C-161.19283507 105.44877424 -175.53440874 110.51558542 -186.9296875 119.2109375 C-188.6875 120.5 -188.6875 120.5 -190.6875 120.5 C-190.6875 121.16 -190.6875 121.82 -190.6875 122.5 C-191.244375 122.726875 -191.80125 122.95375 -192.375 123.1875 C-195.33843537 124.8694498 -197.30375515 127.06420832 -199.6875 129.5 C-200.99460937 130.78970703 -200.99460937 130.78970703 -202.328125 132.10546875 C-203.18921875 132.95753906 -204.0503125 133.80960938 -204.9375 134.6875 C-206.24460937 135.97720703 -206.24460937 135.97720703 -207.578125 137.29296875 C-209.71744238 139.31431066 -209.71744238 139.31431066 -210.6875 141.5 C-211.3475 141.5 -212.0075 141.5 -212.6875 141.5 C-213.3475 143.15 -214.0075 144.8 -214.6875 146.5 C-215.3475 146.5 -216.0075 146.5 -216.6875 146.5 C-216.96078125 147.23863281 -217.2340625 147.97726563 -217.515625 148.73828125 C-218.61561357 151.33058764 -219.83140069 153.38628782 -221.4375 155.6875 C-240.59805976 183.91924264 -255.00469613 220.08193462 -258.96484375 254.0390625 C-259.86563323 257.10661586 -260.95143764 257.93214404 -263.6875 259.5 C-266.125 260 -266.125 260 -268.6875 259.5 C-276.5058963 254.2225825 -278.53389135 243.07350794 -280.3125 234.375 C-282.45341837 222.52959367 -283.46225334 210.46618174 -284.6875 198.5 C-303.85173211 196.38787567 -324.99782904 194.11043835 -343.3828125 201.59765625 C-345.6875 202.5 -345.6875 202.5 -348.6875 202.5 C-348.6875 203.16 -348.6875 203.82 -348.6875 204.5 C-350.2904053 205.31498562 -351.89487278 206.12689927 -353.5 206.9375 C-354.83998047 207.61619141 -354.83998047 207.61619141 -356.20703125 208.30859375 C-358.6875 209.5 -358.6875 209.5 -361.6875 210.5 C-361.6875 211.16 -361.6875 211.82 -361.6875 212.5 C-362.79225231 213.50541491 -363.94923243 214.45363828 -365.125 215.375 C-378.80047718 227.06219858 -386.61415578 244.43521808 -388.4375 262.1875 C-388.89657875 269.65299494 -388.90611451 276.94685248 -388 284.375 C-387.63384937 287.92971233 -387.60594582 289.30193984 -389 292.6875 C-389.556875 293.285625 -390.11375 293.88375 -390.6875 294.5 C-391.3475 294.5 -392.0075 294.5 -392.6875 294.5 C-392.6875 295.16 -392.6875 295.82 -392.6875 296.5 C-396.21078617 297.25992447 -398.8311402 297.76506375 -402.3125 296.6875 C-409.28204168 290.2681853 -411.26153535 280.50265805 -411.90795898 271.39331055 C-412.02814064 267.9674981 -412.06697385 264.55291158 -412.0625 261.125 C-412.06161377 259.8992627 -412.06072754 258.67352539 -412.05981445 257.41064453 C-411.92223819 246.71601028 -410.3791743 236.81940041 -407.6875 226.5 C-407.47222656 225.54867187 -407.25695312 224.59734375 -407.03515625 223.6171875 C-404.96641921 215.42336628 -400.57755808 207.94747461 -396.6875 200.5 C-396.0275 200.5 -395.3675 200.5 -394.6875 200.5 C-394.3575 198.85 -394.0275 197.2 -393.6875 195.5 C-393.0275 195.5 -392.3675 195.5 -391.6875 195.5 C-391.6875 194.84 -391.6875 194.18 -391.6875 193.5 C-391.0275 193.5 -390.3675 193.5 -389.6875 193.5 C-389.3575 192.18 -389.0275 190.86 -388.6875 189.5 C-388.0275 189.5 -387.3675 189.5 -386.6875 189.5 C-386.43871094 188.92378906 -386.18992187 188.34757813 -385.93359375 187.75390625 C-384.50971852 185.17843288 -382.86321857 183.47988443 -380.75 181.4375 C-380.06035156 180.76589844 -379.37070312 180.09429687 -378.66015625 179.40234375 C-377.68369141 178.46068359 -377.68369141 178.46068359 -376.6875 177.5 C-376.17058594 176.92378906 -375.65367187 176.34757813 -375.12109375 175.75390625 C-373.6875 174.5 -373.6875 174.5 -370.6875 174.5 C-370.6875 173.84 -370.6875 173.18 -370.6875 172.5 C-363.58611138 167.06760133 -354.94471885 163.72790504 -346.6875 160.5 C-345.74003906 160.11714844 -344.79257812 159.73429688 -343.81640625 159.33984375 C-325.5321796 152.81507902 -304.04843073 152.36373282 -284.9375 154.5 C-284.03773438 154.59539062 -283.13796875 154.69078125 -282.2109375 154.7890625 C-280.03585665 155.02045408 -277.86158044 155.25939031 -275.6875 155.5 C-275.56270264 154.90324463 -275.43790527 154.30648926 -275.30932617 153.69165039 C-274.00363503 147.6064506 -272.14243462 142.21551342 -269.6875 136.5 C-269.15197026 135.20848814 -268.61684285 133.91680941 -268.08203125 132.625 C-265.24619999 125.86575208 -262.40571503 119.52160049 -258.109375 113.5390625 C-255.66674605 110.03617154 -253.69776505 106.26257574 -251.6875 102.5 C-251.0275 102.5 -250.3675 102.5 -249.6875 102.5 C-249.31625 101.4171875 -249.31625 101.4171875 -248.9375 100.3125 C-247.56480408 97.22393418 -245.96396704 94.98988582 -243.6875 92.5 C-243.0275 92.5 -242.3675 92.5 -241.6875 92.5 C-241.3575 91.51 -241.0275 90.52 -240.6875 89.5 C-240.0275 89.5 -239.3675 89.5 -238.6875 89.5 C-238.6875 88.84 -238.6875 88.18 -238.6875 87.5 C-238.0275 87.5 -237.3675 87.5 -236.6875 87.5 C-236.6875 86.84 -236.6875 86.18 -236.6875 85.5 C-232.96804101 81.58672304 -228.96889679 77.98539285 -223.6875 76.5 C-223.6875 75.84 -223.6875 75.18 -223.6875 74.5 C-221.2125 74.005 -221.2125 74.005 -218.6875 73.5 C-218.6875 72.84 -218.6875 72.18 -218.6875 71.5 C-202.85902434 61.87288605 -184.63424487 55.48122137 -166.01171875 55.2265625 C-165.17757446 55.21403442 -164.34343018 55.20150635 -163.48400879 55.18859863 C-144.59350062 54.96007383 -127.00167946 55.36910161 -108.6875 60.5 C-107.77226562 60.74588867 -106.85703125 60.99177734 -105.9140625 61.24511719 C-95.10185155 64.17406243 -84.69049848 67.71064606 -74.55078125 72.51171875 C-71.98610678 73.69996416 -70.16954612 74.53805627 -67.3125 74.3125 C-65.48958333 73.60416667 -65.48958333 73.60416667 -64.6875 71.5 C-64.0275 71.5 -63.3675 71.5 -62.6875 71.5 C-62.6875 70.84 -62.6875 70.18 -62.6875 69.5 C-62.0275 69.5 -61.3675 69.5 -60.6875 69.5 C-60.378125 68.88125 -60.06875 68.2625 -59.75 67.625 C-59.0625 66.25 -58.375 64.875 -57.6875 63.5 C-57.0275 63.5 -56.3675 63.5 -55.6875 63.5 C-55.419375 62.9225 -55.15125 62.345 -54.875 61.75 C-53.65820811 59.44449957 -52.38416121 57.47943808 -50.6875 55.5 C-50.0275 55.5 -49.3675 55.5 -48.6875 55.5 C-48.0275 53.85 -47.3675 52.2 -46.6875 50.5 C-46.0275 50.5 -45.3675 50.5 -44.6875 50.5 C-44.44644531 49.93925781 -44.20539063 49.37851562 -43.95703125 48.80078125 C-42.4257177 46.02556993 -40.54153695 43.99968649 -38.375 41.6875 C-35.61392163 38.6911529 -33.04202228 35.74441 -30.75 32.375 C-30.069375 31.42625 -29.38875 30.4775 -28.6875 29.5 C-28.0275 29.5 -27.3675 29.5 -26.6875 29.5 C-26.42582031 28.93152344 -26.16414063 28.36304687 -25.89453125 27.77734375 C-22.60979588 21.57993041 -17.67075694 16.36460797 -12.6875 11.5 C-10.29919915 8.88600062 -7.93724627 6.24971602 -5.578125 3.609375 C-2.81195731 0.52315485 -2.81195731 0.52315485 0 0 Z " fill="#4DA5DB" transform="translate(555.6875,13.5)"/>
<path d="M0 0 C231.66 0 463.32 0 702 0 C702 3.3 702 6.6 702 10 C470.34 10 238.68 10 0 10 C0 6.7 0 3.4 0 0 Z " fill="#51A3D8" transform="translate(140,330)"/>
<path d="M0 0 C231.66 0 463.32 0 702 0 C702 2.97 702 5.94 702 9 C470.34 9 238.68 9 0 9 C0 6.03 0 3.06 0 0 Z " fill="#50A4D9" transform="translate(140,419)"/>
<path d="M0 0 C26 0 26 0 33 4 C34.5234375 5.8515625 34.5234375 5.8515625 35.375 7.625 C36.23999119 9.42152016 37.10829439 11.21658879 38 13 C38.54885344 19.3666999 37.56593472 23.65710118 34 29 C33.236875 29.680625 32.47375 30.36125 31.6875 31.0625 C29.56011574 33.04507052 29.56011574 33.04507052 30.25 36.75 C30.4975 37.8225 30.745 38.895 31 40 C31.66 40 32.32 40 33 40 C33.495 42.475 33.495 42.475 34 45 C34.66 45 35.32 45 36 45 C38.1519437 48.22791555 38.20086443 49.28400809 38 53 C33.63905914 54.14643291 30.30786649 54.463049 26 53 C23.16409276 49.77529903 21.30394233 45.99577464 19.47509766 42.13500977 C18.41970499 39.95702973 17.43944931 37.94705653 16 36 C12.85455657 34.82173873 12.85455657 34.82173873 10 35 C10.03480469 35.64066406 10.06960938 36.28132813 10.10546875 36.94140625 C10.28983785 42.83243786 9.77450822 46.78392454 7 52 C6.505 52.495 6.505 52.495 6 53 C4.02 53 2.04 53 0 53 C0 35.51 0 18.02 0 0 Z M10 11 C10 14.3 10 17.6 10 21 C14.55843368 23.49978621 19.07930402 23.37300319 24 22 C26.31296298 20.15273427 26.91944447 19.46031734 27.4375 16.5 C27.22945971 13.9253686 27.22945971 13.9253686 25.39453125 12.35546875 C22.20524164 10.55011232 19.889331 10.70332007 16.25 10.8125 C15.07953125 10.83957031 13.9090625 10.86664063 12.703125 10.89453125 C11.81109375 10.92933594 10.9190625 10.96414063 10 11 Z " fill="#F6F6F6" transform="translate(616,353)"/>
<path d="M0 0 C29.5483871 0 29.5483871 0 37 7 C37 7.66 37 8.32 37 9 C37.66 9 38.32 9 39 9 C43.37163344 18.91424012 45.01461338 28.58040368 41.05859375 38.953125 C39.2701083 42.41130352 36.94739032 45.44668973 34 48 C33.34 48 32.68 48 32 48 C32 48.66 32 49.32 32 50 C27.27263112 52.36368444 22.2462788 53.08614579 17 53 C13.89176603 51.66789973 12.50498309 51.00996617 11 48 C10.505 50.475 10.505 50.475 10 53 C6.7 53 3.4 53 0 53 C0 35.51 0 18.02 0 0 Z M10 11 C10 20.9 10 30.8 10 41 C21.34692425 41.46017282 21.34692425 41.46017282 29.75 36.6875 C33.00185359 32.29749765 33.64027851 27.30516479 33 22 C31.20787021 17.83118306 29.01642502 14.79330733 25.4375 12 C20.67627622 10.44134092 20.67627622 10.44134092 10 11 Z " fill="#F5F5F5" transform="translate(465,353)"/>
<path d="M0 0 C4.97574169 4.29723146 8.03317451 8.47392792 9 15 C9.19200925 18.25076128 9.2307346 21.4941478 9.25 24.75 C9.270625 25.6059375 9.29125 26.461875 9.3125 27.34375 C9.3493158 33.41835666 8.26650218 38.36963938 6 44 C5.34 44 4.68 44 4 44 C3.79375 44.5775 3.5875 45.155 3.375 45.75 C1.42572702 48.93971943 -0.74476972 50.18067961 -4 52 C-7.65625 52.53125 -7.65625 52.53125 -11.5 52.5 C-13.40265625 52.51546875 -13.40265625 52.51546875 -15.34375 52.53125 C-19.54742719 51.9204593 -21.71696239 50.64603031 -25 48 C-26.375 45.75 -26.375 45.75 -27 44 C-27.66 44 -28.32 44 -29 44 C-31.83319588 37.60848952 -32.43653258 32.38828566 -32.3125 25.4375 C-32.31572266 24.53064453 -32.31894531 23.62378906 -32.32226562 22.68945312 C-32.25843531 14.68745278 -31.14813179 8.43516473 -26 2 C-17.98367002 -4.17925436 -8.95403284 -4.99359524 0 0 Z M-19 12.8125 C-22.53689344 18.44942391 -22.50795714 23.5054052 -22 30 C-21.13347091 33.54257482 -19.71737912 36.20575883 -17.25 38.9375 C-13.95390952 40.49398717 -11.59996843 40.44210139 -8 40 C-4.47682299 37.80780097 -2.4900121 35.84646296 -1 32 C0.04548397 22.76164721 0.04548397 22.76164721 -2.875 14.25 C-6.39699978 10.38289091 -6.39699978 10.38289091 -11.3125 9.5 C-14.94722716 9.56438325 -16.6327664 10.01486029 -19 12.8125 Z " fill="#F4F4F4" transform="translate(401,354)"/>
<path d="M0 0 C0.74185547 -0.020625 1.48371094 -0.04125 2.24804688 -0.0625 C6.80682593 -0.09497572 9.73427249 0.30009063 13.4375 3.25 C15.2404458 6.59832791 15.4375 8.36481261 15.4375 12.25 C3.0625 12.745 3.0625 12.745 -9.5625 13.25 C-10.64334521 16.88619656 -10.64334521 16.88619656 -10.5625 19.25 C-10.00264404 19.26981934 -9.44278809 19.28963867 -8.8659668 19.31005859 C-6.32684146 19.40537783 -3.78853112 19.51502753 -1.25 19.625 C0.07161133 19.67140625 0.07161133 19.67140625 1.41992188 19.71875 C2.26748047 19.75742187 3.11503906 19.79609375 3.98828125 19.8359375 C4.76856689 19.8673584 5.54885254 19.8987793 6.3527832 19.93115234 C8.4375 20.25 8.4375 20.25 11.4375 22.25 C11.4375 22.91 11.4375 23.57 11.4375 24.25 C12.0975 24.25 12.7575 24.25 13.4375 24.25 C16.69680242 29.13895363 17.0738091 34.448982 16.4375 40.25 C15.6205693 43.03801349 14.5857122 45.57083819 13.4375 48.25 C12.7775 48.25 12.1175 48.25 11.4375 48.25 C11.1075 49.24 10.7775 50.23 10.4375 51.25 C5.15877056 53.29685427 -0.06685095 53.47830274 -5.6875 53.5625 C-6.36820557 53.58014404 -7.04891113 53.59778809 -7.75024414 53.6159668 C-12.41644678 53.60972476 -15.86978591 53.18509038 -19.5625 50.25 C-20.36747434 47.24749233 -20.5495013 44.35019102 -20.5625 41.25 C-19.54095825 41.220271 -19.54095825 41.220271 -18.4987793 41.18994141 C-15.41546083 41.09473017 -12.33282351 40.98503534 -9.25 40.875 C-8.17814453 40.8440625 -7.10628906 40.813125 -6.00195312 40.78125 C-4.45991211 40.72324219 -4.45991211 40.72324219 -2.88671875 40.6640625 C-1.93885498 40.6326416 -0.99099121 40.6012207 -0.0144043 40.56884766 C2.6905269 40.4010949 2.6905269 40.4010949 5.4375 38.25 C5.1075 36.27 4.7775 34.29 4.4375 32.25 C3.60347656 32.28480469 2.76945313 32.31960938 1.91015625 32.35546875 C-11.85066312 32.68648502 -11.85066312 32.68648502 -17.5625 29.25 C-20.50713281 26.39365425 -21.48275688 24.78416163 -22.09375 20.69140625 C-22.0834375 19.41136719 -22.073125 18.13132812 -22.0625 16.8125 C-22.07796875 14.89630859 -22.07796875 14.89630859 -22.09375 12.94140625 C-21.48288604 8.69680005 -20.24893378 6.55450822 -17.5625 3.25 C-12.24655654 -0.2939623 -6.20331295 0.04334192 0 0 Z " fill="#F6F6F6" transform="translate(551.5625,352.75)"/>
<path d="M0 0 C0.74636719 -0.020625 1.49273438 -0.04125 2.26171875 -0.0625 C6.83843857 -0.09490156 9.78213113 0.28842765 13.5 3.25 C15.60690546 6.98496878 15.57765095 7.9393962 14.5 12.25 C6.58 12.58 -1.34 12.91 -9.5 13.25 C-9.83 14.24 -10.16 15.23 -10.5 16.25 C-10.17 16.91 -9.84 17.57 -9.5 18.25 C-5.38205844 19.62264719 -1.25342674 19.59950905 3.05078125 19.76757812 C6.68854201 19.95771749 8.39614929 20.18076619 11.5 22.25 C11.5 22.91 11.5 23.57 11.5 24.25 C12.49 24.58 13.48 24.91 14.5 25.25 C17.73054575 33.58140746 16.94439801 40.21307131 13.5 48.25 C12.84 48.25 12.18 48.25 11.5 48.25 C11.17 49.24 10.84 50.23 10.5 51.25 C5.4839033 53.17187613 0.79815962 53.56120639 -4.5625 53.5 C-5.5844043 53.51160156 -5.5844043 53.51160156 -6.62695312 53.5234375 C-10.93775403 53.50687342 -14.56384446 53.0473313 -18.5 51.25 C-19.5 48.25 -19.5 48.25 -19.5 41.25 C-7.125 40.755 -7.125 40.755 5.5 40.25 C5.76352314 35.51352314 5.76352314 35.51352314 4.5 32.25 C3.654375 32.28480469 2.80875 32.31960938 1.9375 32.35546875 C-12.46439472 32.69915033 -12.46439472 32.69915033 -18.0859375 27.89453125 C-22.02710382 23.31102014 -21.86398956 19.0170578 -21.75 13.16796875 C-21.43788909 9.52504917 -20.68771533 7.19209992 -18.5 4.25 C-12.89069403 -0.03078614 -6.77036985 0.04677285 0 0 Z " fill="#F6F6F6" transform="translate(827.5,352.75)"/>
<path d="M0 0 C11.55 0 23.1 0 35 0 C35 7 35 7 33.671875 9.421875 C29.39020076 11.95081709 25.11649157 11.4184804 20.25 11.25 C18.77466797 11.22292969 18.77466797 11.22292969 17.26953125 11.1953125 C14.84593659 11.14825241 12.42284375 11.07651086 10 11 C10 13.97 10 16.94 10 20 C15.94 20 21.88 20 28 20 C27 28 27 28 25.125 29.9375 C21.53025209 31.73487395 18.77698236 32.11398678 14.8125 32.0625 C13.91144531 32.05347656 13.01039063 32.04445313 12.08203125 32.03515625 C11.39496094 32.02355469 10.70789063 32.01195312 10 32 C10 34.97 10 37.94 10 41 C11.38574219 40.94199219 12.77148438 40.88398438 14.19921875 40.82421875 C16.0286121 40.77731123 17.85804194 40.73181213 19.6875 40.6875 C20.59951172 40.64560547 21.51152344 40.60371094 22.45117188 40.56054688 C26.95569676 40.47864642 29.30929124 40.54267358 33.14453125 43.08203125 C35 46 35 46 35 53 C23.45 53 11.9 53 0 53 C0 35.51 0 18.02 0 0 Z " fill="#FDFDFD" transform="translate(767,353)"/>
<path d="M0 0 C11.55 0 23.1 0 35 0 C35 7 35 7 33.671875 9.421875 C29.39020076 11.95081709 25.11649157 11.4184804 20.25 11.25 C18.77466797 11.22292969 18.77466797 11.22292969 17.26953125 11.1953125 C14.84593659 11.14825241 12.42284375 11.07651086 10 11 C10 13.97 10 16.94 10 20 C15.61 20 21.22 20 27 20 C27 28 27 28 25.1875 29.9375 C21.5573991 31.70069186 18.79935892 32.11427739 14.8125 32.0625 C13.91144531 32.05347656 13.01039063 32.04445313 12.08203125 32.03515625 C11.39496094 32.02355469 10.70789063 32.01195312 10 32 C10 34.97 10 37.94 10 41 C11.39734375 40.97679687 12.7946875 40.95359375 14.234375 40.9296875 C16.07291132 40.91092693 17.91145342 40.89272703 19.75 40.875 C20.67039063 40.85824219 21.59078125 40.84148437 22.5390625 40.82421875 C23.87324219 40.81455078 23.87324219 40.81455078 25.234375 40.8046875 C26.05131836 40.79421387 26.86826172 40.78374023 27.70996094 40.77294922 C30.28292411 41.02805111 31.85034435 41.56828413 34 43 C35 46 35 46 35 53 C23.45 53 11.9 53 0 53 C0 35.51 0 18.02 0 0 Z " fill="#F5F5F5" transform="translate(225,353)"/>
<path d="M0 0 C11.55 0 23.1 0 35 0 C35 7 35 7 33.671875 9.421875 C29.39020076 11.95081709 25.11649157 11.4184804 20.25 11.25 C18.77466797 11.22292969 18.77466797 11.22292969 17.26953125 11.1953125 C14.84593659 11.14825241 12.42284375 11.07651086 10 11 C10 13.97 10 16.94 10 20 C15.94 20 21.88 20 28 20 C26.73913043 27.56521739 26.73913043 27.56521739 25 30 C20.4483747 32.84476581 15.17258311 32.18078931 10 32 C10 34.97 10 37.94 10 41 C11.38574219 40.94199219 12.77148438 40.88398438 14.19921875 40.82421875 C16.0286121 40.77731123 17.85804194 40.73181213 19.6875 40.6875 C20.59951172 40.64560547 21.51152344 40.60371094 22.45117188 40.56054688 C27.10746083 40.47588708 29.28127906 40.46658133 33.12109375 43.31640625 C35.35513463 46.50722972 35.52048086 48.18314034 35 52 C34 53 34 53 30.76538086 53.11352539 C29.33185875 53.11327438 27.89833058 53.10771608 26.46484375 53.09765625 C25.46378601 53.09614563 25.46378601 53.09614563 24.44250488 53.09460449 C21.9408192 53.08935808 19.43915794 53.07539691 16.9375 53.0625 C8.5534375 53.0315625 8.5534375 53.0315625 0 53 C0 35.51 0 18.02 0 0 Z " fill="#FAFAFA" transform="translate(574,353)"/>
<path d="M0 0 C0.721875 0.12375 1.44375 0.2475 2.1875 0.375 C2.20208252 1.34324707 2.21666504 2.31149414 2.23168945 3.30908203 C2.28991567 6.92126324 2.36714536 10.53283683 2.44995117 14.14453125 C2.48308667 15.70400081 2.5111537 17.26358702 2.53393555 18.82324219 C2.56769281 21.07276852 2.62001504 23.32123687 2.67578125 25.5703125 C2.68217117 26.2611795 2.6885611 26.95204651 2.69514465 27.66384888 C2.832968 32.26092884 3.7420193 35.47939721 6.1875 39.375 C9.88236103 41.83824069 11.82043092 41.76491688 16.1875 41.375 C18.00226003 39.97914215 18.00226003 39.97914215 19.1875 38.375 C19.8475 38.375 20.5075 38.375 21.1875 38.375 C21.21255615 37.25939697 21.2376123 36.14379395 21.26342773 34.99438477 C21.35733421 30.8700741 21.45759514 26.7459385 21.55981445 22.62182617 C21.603227 20.8341073 21.64489729 19.04634526 21.68481445 17.25854492 C21.7423646 14.69436609 21.80610203 12.13040588 21.87109375 9.56640625 C21.88780624 8.7622377 21.90451874 7.95806915 21.92173767 7.12953186 C22.07362829 1.48887171 22.07362829 1.48887171 23.1875 0.375 C24.85367115 0.33436168 26.52138095 0.332279 28.1875 0.375 C28.1875 1.035 28.1875 1.695 28.1875 2.375 C29.1775 2.705 30.1675 3.035 31.1875 3.375 C34.77264918 8.47149889 33.51460058 15.63174609 33.5 21.5625 C33.51611328 22.85220703 33.53222656 24.14191406 33.54882812 25.47070312 C33.55306873 33.76956972 32.99969713 40.76299671 28.625 47.9375 C28.150625 48.411875 27.67625 48.88625 27.1875 49.375 C26.5275 49.375 25.8675 49.375 25.1875 49.375 C25.1875 50.035 25.1875 50.695 25.1875 51.375 C21.14553214 54.54806114 17.7983969 54.80741602 12.75 54.8125 C11.47253906 54.83183594 10.19507813 54.85117187 8.87890625 54.87109375 C3.14773152 54.10087238 -1.2180167 50.8371172 -4.8125 46.375 C-8.3909896 39.28870701 -8.33804603 32.19490586 -8.31347656 24.42919922 C-8.31249868 22.24705164 -8.35432422 20.06836533 -8.3984375 17.88671875 C-8.40364209 16.48438224 -8.40633273 15.08203367 -8.40625 13.6796875 C-8.41333984 12.42140137 -8.42042969 11.16311523 -8.42773438 9.86669922 C-7.54867434 4.8776847 -5.49371063 0.73249475 0 0 Z " fill="#F5F5F5" transform="translate(423.8125,351.625)"/>
<path d="M0 0 C5 1 5 1 7 2 C7 2.66 7 3.32 7 4 C7.66 4 8.32 4 9 4 C10.72154184 9.4764008 10.0566655 15.33345016 10 21 C15.61 21 21.22 21 27 21 C26.938125 18.793125 26.87625 16.58625 26.8125 14.3125 C26.66863889 9.18145387 26.90206034 6.16309082 30 2 C30.66 1.34 31.32 0.68 32 0 C33.65 0 35.3 0 37 0 C37 17.49 37 34.98 37 53 C31 53 31 53 29.1875 51.6875 C25.50745495 46.45796229 26.94466498 39.03151772 27 33 C21.39 33 15.78 33 10 33 C10.061875 35.02125 10.12375 37.0425 10.1875 39.125 C10.14732553 48.34504132 10.14732553 48.34504132 7 52 C3.535 52.495 3.535 52.495 0 53 C0 35.51 0 18.02 0 0 Z " fill="#F5F5F5" transform="translate(179,352)"/>
<path d="M0 0 C1.97792595 1.19028758 3.66161784 2.26675413 5.25 3.94140625 C5.25 4.60140625 5.25 5.26140625 5.25 5.94140625 C5.91 5.94140625 6.57 5.94140625 7.25 5.94140625 C8.0625 9.19140625 8.0625 9.19140625 8.25 12.94140625 C6.0625 15.37890625 6.0625 15.37890625 3.25 16.94140625 C1.93 16.94140625 0.61 16.94140625 -0.75 16.94140625 C-1.45125 16.11640625 -2.1525 15.29140625 -2.875 14.44140625 C-6.55702819 11.23964261 -8.72844616 11.41530833 -13.4453125 11.47265625 C-16.1533307 12.02343961 -16.94188374 12.93001065 -18.75 14.94140625 C-19.41 14.94140625 -20.07 14.94140625 -20.75 14.94140625 C-23.08287939 20.62779976 -24.21148184 26.40848527 -21.8046875 32.2265625 C-19.29571436 36.5738713 -17.57406554 38.30996522 -12.75 39.94140625 C-10.14787925 40.30037365 -10.14787925 40.30037365 -7.44921875 40.35546875 C-6.47275391 40.39414062 -5.49628906 40.4328125 -4.49023438 40.47265625 C-3.48283203 40.50359375 -2.47542969 40.53453125 -1.4375 40.56640625 C0.10260742 40.62441406 0.10260742 40.62441406 1.67382812 40.68359375 C4.19904265 40.77755522 6.72425592 40.86322165 9.25 40.94140625 C8.4140625 48.69921875 8.4140625 48.69921875 6.9375 50.87890625 C0.59005939 54.87544293 -9.58516988 53.53828145 -16.625 52.25390625 C-22.8363993 50.60435882 -27.01992356 47.39576322 -30.5625 42.06640625 C-34.96538275 34.28894561 -35.87099296 26.26992105 -34.3203125 17.515625 C-32.23566259 10.06493182 -27.57544627 5.29594481 -21.75 0.44140625 C-15.49737234 -2.72035331 -6.40846805 -2.46689608 0 0 Z " fill="#F2F2F2" transform="translate(751.75,353.05859375)"/>
<path d="M0 0 C1.96624143 1.19668913 3.6543152 2.27922259 5.23828125 3.94921875 C5.23828125 4.60921875 5.23828125 5.26921875 5.23828125 5.94921875 C5.89828125 5.94921875 6.55828125 5.94921875 7.23828125 5.94921875 C8.17578125 8.57421875 8.17578125 8.57421875 8.23828125 11.94921875 C6.18389545 14.33703889 3.80785521 16.14218669 1.23828125 17.94921875 C-0.80291663 16.33327043 -2.80244812 14.66358055 -4.76171875 12.94921875 C-4.76171875 12.28921875 -4.76171875 11.62921875 -4.76171875 10.94921875 C-12.28812903 10.99161832 -12.28812903 10.99161832 -18.82421875 14.26171875 C-21.73823612 18.30374284 -23.03361963 20.91585689 -22.94921875 25.94921875 C-22.94277344 26.79484375 -22.93632812 27.64046875 -22.9296875 28.51171875 C-22.77325951 30.78174352 -22.39261689 32.76883479 -21.76171875 34.94921875 C-21.10171875 34.94921875 -20.44171875 34.94921875 -19.76171875 34.94921875 C-18.13671875 36.32421875 -18.13671875 36.32421875 -16.76171875 37.94921875 C-16.76171875 38.60921875 -16.76171875 39.26921875 -16.76171875 39.94921875 C-3.89171875 40.44421875 -3.89171875 40.44421875 9.23828125 40.94921875 C8.23828125 47.94921875 8.23828125 47.94921875 6.42578125 50.32421875 C0.89738193 54.43102968 -7.01777173 53.4145681 -13.52734375 52.60546875 C-18.09401382 51.78510886 -22.05592834 50.91385108 -25.76171875 47.94921875 C-25.76171875 47.28921875 -25.76171875 46.62921875 -25.76171875 45.94921875 C-26.75171875 45.61921875 -27.74171875 45.28921875 -28.76171875 44.94921875 C-32.06382333 40.4159827 -34.40966395 35.5820955 -34.76171875 29.94921875 C-34.81199219 29.27246094 -34.86226563 28.59570312 -34.9140625 27.8984375 C-35.23815884 20.39236624 -33.34327619 13.00341965 -28.76171875 6.94921875 C-20.72091619 -0.87637985 -11.04612901 -4.20284117 0 0 Z " fill="#F5F5F5" transform="translate(315.76171875,353.05078125)"/>
<path d="M0 0 C3.63 0 7.26 0 11 0 C13.14429959 4.05711229 14.72049961 7.97138615 16 12.375 C17.13093475 16.18538016 18.29743872 19.92507977 19.75 23.625 C21 27 21 27 21 30 C21.66 30 22.32 30 23 30 C23.16435547 29.18208984 23.16435547 29.18208984 23.33203125 28.34765625 C28.18367718 5.27275485 28.18367718 5.27275485 34.92578125 0.69140625 C38.08413314 -0.36137771 40.78883891 0.38246902 44 1 C43.40817348 6.44052571 42.07262526 11.18630251 40.1875 16.3125 C39.78047852 17.44051025 39.78047852 17.44051025 39.36523438 18.59130859 C37.36083345 24.11055271 35.23078657 29.56851965 33 35 C31.91228149 37.70658268 30.83137497 40.41587777 29.75 43.125 C29.22406629 44.44014734 28.69803357 45.7552551 28.171875 47.0703125 C27.78515625 48.03710938 27.3984375 49.00390625 27 50 C26.34 50 25.68 50 25 50 C24.67 50.99 24.34 51.98 24 53 C21.03 53.495 21.03 53.495 18 54 C17.77578369 53.38286133 17.55156738 52.76572266 17.32055664 52.12988281 C14.60688738 44.66371724 11.89066786 37.19848866 9.16333008 29.73730469 C8.67692481 28.40553917 8.19125509 27.07350479 7.70629883 25.74121094 C6.99225159 23.77991649 6.27566784 21.81956451 5.55859375 19.859375 C5.13892334 18.70920898 4.71925293 17.55904297 4.28686523 16.37402344 C3.36705672 13.96238358 2.40347777 11.63726904 1.35180664 9.28613281 C-0.04233062 5.89709768 -0.26494562 3.62092352 0 0 Z " fill="#F3F3F3" transform="translate(654,353)"/>
<path d="M0 0 C11.55 0 23.1 0 35 0 C34 8 34 8 32.73046875 9.95703125 C30.5410284 11.27662622 28.8548467 11.50327198 26.3125 11.6875 C25.10013672 11.78611328 25.10013672 11.78611328 23.86328125 11.88671875 C23.24839844 11.92410156 22.63351563 11.96148437 22 12 C22.02618408 13.06436279 22.05236816 14.12872559 22.0793457 15.2253418 C22.17004776 19.18541327 22.22732089 23.14539351 22.2746582 27.10620117 C22.29975714 28.81827245 22.33384429 30.53023704 22.37719727 32.24194336 C22.43805739 34.70713645 22.46625432 37.17090985 22.48828125 39.63671875 C22.52699089 40.77919319 22.52699089 40.77919319 22.56648254 41.94474792 C22.5685294 45.84909084 22.13140908 47.81572366 19.84448242 51.02270508 C17 53 17 53 11 53 C11 39.47 11 25.94 11 12 C8.36 11.67 5.72 11.34 3 11 C1 9.9375 1 9.9375 0 8 C0 5.36 0 2.72 0 0 Z " fill="#FEFEFE" transform="translate(140,353)"/>
<path d="M0 0 C3.3 0 6.6 0 10 0 C10 13.53 10 27.06 10 41 C16.27 41 22.54 41 29 41 C34 46 34 46 34 53 C22.78 53 11.56 53 0 53 C0 35.51 0 18.02 0 0 Z " fill="#F1F1F1" transform="translate(331,353)"/>
<path d="M0 0 C1.98 0 3.96 0 6 0 C9.66167235 3.76063647 11.12732741 6.37955037 11.11352539 11.54150391 C11.11344986 12.48232819 11.11337433 13.42315247 11.11329651 14.39248657 C11.10813522 15.41023163 11.10297394 16.42797668 11.09765625 17.4765625 C11.0962413 18.51694672 11.09482635 19.55733093 11.09336853 20.62924194 C11.08775866 23.96119021 11.07520447 27.29307195 11.0625 30.625 C11.05748627 32.88020736 11.05292314 35.13541578 11.04882812 37.390625 C11.03778602 42.92710907 11.02051475 48.46354325 11 54 C7.37 54 3.74 54 0 54 C0 36.18 0 18.36 0 0 Z " fill="#EFEFEF" transform="translate(701,352)"/>
<path d="M0 0 C11.55 0 23.1 0 35 0 C34 8 34 8 31 11 C26.545 11.495 26.545 11.495 22 12 C22 23.22 22 34.44 22 46 C21.67 46 21.34 46 21 46 C21 34.12 21 22.24 21 10 C24.3 9.34 27.6 8.68 31 8 C31.33 6.02 31.66 4.04 32 2 C21.77 2 11.54 2 1 2 C1.33 3.98 1.66 5.96 2 8 C5.63 8.66 9.26 9.32 13 10 C14.14544072 16.29992398 14.34294666 22.6050535 14 29 C13.67 29.33 13.34 29.66 13 30 C12.84285346 31.63256758 12.74914586 33.27135338 12.68359375 34.91015625 C12.64169922 35.89951172 12.59980469 36.88886719 12.55664062 37.90820312 C12.51732422 38.94912109 12.47800781 39.99003906 12.4375 41.0625 C12.39431641 42.10728516 12.35113281 43.15207031 12.30664062 44.22851562 C12.20018775 46.81886884 12.0981724 49.40932186 12 52 C11.67 52 11.34 52 11 52 C11 38.8 11 25.6 11 12 C8.36 11.67 5.72 11.34 3 11 C1 9.9375 1 9.9375 0 8 C0 5.36 0 2.72 0 0 Z " fill="#CBCBCB" transform="translate(140,353)"/>
<path d="M0 0 C11.55 0 23.1 0 35 0 C35 7 35 7 33.671875 9.421875 C29.39020076 11.95081709 25.11649157 11.4184804 20.25 11.25 C18.77466797 11.22292969 18.77466797 11.22292969 17.26953125 11.1953125 C14.84593659 11.14825241 12.42284375 11.07651086 10 11 C10 13.97 10 16.94 10 20 C15.94 20 21.88 20 28 20 C27.67 20.66 27.34 21.32 27 22 C21.06 21.67 15.12 21.34 9 21 C9 17.04 9 13.08 9 9 C16.59 8.67 24.18 8.34 32 8 C32.66 6.02 33.32 4.04 34 2 C23.11 2 12.22 2 1 2 C1 18.17 1 34.34 1 51 C0.67 51 0.34 51 0 51 C0 34.17 0 17.34 0 0 Z " fill="#D1D1D1" transform="translate(574,353)"/>
<path d="M0 0 C11.55 0 23.1 0 35 0 C35 1.98 35 3.96 35 6 C34.505 4.02 34.505 4.02 34 2 C23.77 2 13.54 2 3 2 C3 14.87 3 27.74 3 41 C2.34 41 1.68 41 1 41 C1 44.3 1 47.6 1 51 C0.67 51 0.34 51 0 51 C0 34.17 0 17.34 0 0 Z " fill="#D6D6D6" transform="translate(767,353)"/>
<path d="M0 0 C0.66 0 1.32 0 2 0 C2 3.3 2 6.6 2 10 C7.94 10 13.88 10 20 10 C19 18 19 18 17.125 19.9375 C13.53025209 21.73487395 10.77698236 22.11398678 6.8125 22.0625 C5.91144531 22.05347656 5.01039063 22.04445313 4.08203125 22.03515625 C3.39496094 22.02355469 2.70789063 22.01195312 2 22 C2 24.97 2 27.94 2 31 C3.38574219 30.94199219 4.77148438 30.88398438 6.19921875 30.82421875 C8.0286121 30.77731123 9.85804194 30.73181213 11.6875 30.6875 C12.59951172 30.64560547 13.51152344 30.60371094 14.45117188 30.56054688 C19.10603857 30.47591294 21.28273022 30.46922036 25.125 33.3125 C27.34188315 36.49003252 27.44128519 38.20494741 27 42 C26.67 42 26.34 42 26 42 C25.34 39.36 24.68 36.72 24 34 C23.34402832 33.98018066 22.68805664 33.96036133 22.01220703 33.93994141 C19.04938931 33.84487493 16.08729468 33.73512248 13.125 33.625 C12.09246094 33.5940625 11.05992187 33.563125 9.99609375 33.53125 C9.00996094 33.49257813 8.02382813 33.45390625 7.0078125 33.4140625 C6.09660645 33.3826416 5.18540039 33.3512207 4.24658203 33.31884766 C2 33 2 33 0 31 C-0.1953125 28.3984375 -0.1953125 28.3984375 -0.125 25.375 C-0.10695313 24.37210937 -0.08890625 23.36921875 -0.0703125 22.3359375 C-0.04710937 21.56507813 -0.02390625 20.79421875 0 20 C1.04800781 19.91363281 2.09601562 19.82726562 3.17578125 19.73828125 C4.55481148 19.59756388 5.93371185 19.45556984 7.3125 19.3125 C8.00279297 19.25900391 8.69308594 19.20550781 9.40429688 19.15039062 C11.7092209 18.94282427 11.7092209 18.94282427 15 18 C16.99798987 15.657915 16.99798987 15.657915 18 13 C18.33 12.34 18.66 11.68 19 11 C17.71222656 11.01160156 16.42445313 11.02320313 15.09765625 11.03515625 C13.41927228 11.0445327 11.74088674 11.05363305 10.0625 11.0625 C8.78729492 11.07506836 8.78729492 11.07506836 7.48632812 11.08789062 C6.67744141 11.09111328 5.86855469 11.09433594 5.03515625 11.09765625 C4.2862915 11.10289307 3.53742676 11.10812988 2.76586914 11.11352539 C1 11 1 11 0 10 C-0.07205511 8.31391034 -0.08386068 6.62499341 -0.0625 4.9375 C-0.05347656 4.01839844 -0.04445313 3.09929687 -0.03515625 2.15234375 C-0.02355469 1.44207031 -0.01195312 0.73179687 0 0 Z " fill="#D5D5D5" transform="translate(775,363)"/>
<path d="M0 0 C-3.25389988 2.16926659 -4.13395957 2.24080049 -7.88671875 2.1953125 C-9.2934082 2.18564453 -9.2934082 2.18564453 -10.72851562 2.17578125 C-12.19321289 2.15064453 -12.19321289 2.15064453 -13.6875 2.125 C-14.67556641 2.11597656 -15.66363281 2.10695313 -16.68164062 2.09765625 C-19.12133765 2.0740843 -21.56054697 2.04118022 -24 2 C-23.34 3.98 -22.68 5.96 -22 8 C-13.09 8 -4.18 8 5 8 C5 8.66 5 9.32 5 10 C-0.10090902 11.67591796 -4.67638988 12.31149698 -10.0625 12.25 C-10.74376953 12.25773437 -11.42503906 12.26546875 -12.12695312 12.2734375 C-16.43775403 12.25687342 -20.06384446 11.7973313 -24 10 C-25.1577506 6.52674819 -25.06866652 3.63932552 -25 0 C-21.20873402 -0.19628414 -17.41697828 -0.38053896 -13.625 -0.5625 C-12.54476562 -0.61857422 -11.46453125 -0.67464844 -10.3515625 -0.73242188 C-9.3203125 -0.78076172 -8.2890625 -0.82910156 -7.2265625 -0.87890625 C-6.27346191 -0.9260376 -5.32036133 -0.97316895 -4.33837891 -1.02172852 C-2 -1 -2 -1 0 0 Z " fill="#DEDEDE" transform="translate(833,394)"/>
<path d="M0 0 C0.33 0 0.66 0 1 0 C1 3.3 1 6.6 1 10 C6.61 10 12.22 10 18 10 C18 18 18 18 16.1875 19.9375 C12.5573991 21.70069186 9.79935892 22.11427739 5.8125 22.0625 C4.91144531 22.05347656 4.01039063 22.04445313 3.08203125 22.03515625 C2.39496094 22.02355469 1.70789063 22.01195312 1 22 C1 24.97 1 27.94 1 31 C2.39734375 30.97679687 3.7946875 30.95359375 5.234375 30.9296875 C7.07291132 30.91092693 8.91145342 30.89272703 10.75 30.875 C11.67039063 30.85824219 12.59078125 30.84148437 13.5390625 30.82421875 C14.42851562 30.81777344 15.31796875 30.81132812 16.234375 30.8046875 C17.05131836 30.79421387 17.86826172 30.78374023 18.70996094 30.77294922 C21.21887518 31.02170084 22.83395625 31.74299871 25 33 C24.67 33.99 24.34 34.98 24 36 C24 35.34 24 34.68 24 34 C23.30849854 33.97494385 22.61699707 33.9498877 21.90454102 33.92407227 C18.79032134 33.80847839 15.67643211 33.68558758 12.5625 33.5625 C11.47388672 33.52318359 10.38527344 33.48386719 9.26367188 33.44335938 C7.71196289 33.38051758 7.71196289 33.38051758 6.12890625 33.31640625 C5.17056885 33.27974854 4.21223145 33.24309082 3.22485352 33.20532227 C1 33 1 33 0 32 C-0.14355117 27.99779347 -0.04216403 24.00558317 0 20 C5.28 19.34 10.56 18.68 16 18 C16.33 15.69 16.66 13.38 17 11 C11.39 11 5.78 11 0 11 C0 7.37 0 3.74 0 0 Z " fill="#D0D0D0" transform="translate(234,363)"/>
<path d="M0 0 C0.33 0 0.66 0 1 0 C1 12.21 1 24.42 1 37 C15.85 36.505 15.85 36.505 31 36 C31 34.02 31 32.04 31 30 C33 32 33 32 33 39 C21.78 39 10.56 39 -1 39 C-0.67 26.13 -0.34 13.26 0 0 Z " fill="#EDEDED" transform="translate(332,367)"/>
<path d="M0 0 C0.66 0.33 1.32 0.66 2 1 C1.67 3.64 1.34 6.28 1 9 C11.56 9 22.12 9 33 9 C33.495 10.485 33.495 10.485 34 12 C22.45 12 10.9 12 -1 12 C-0.67 8.04 -0.34 4.08 0 0 Z " fill="#F1F1F1" transform="translate(768,394)"/>
<path d="M0 0 C7.59 0 15.18 0 23 0 C22 7 22 7 20.1875 9.375 C14.40755779 13.66867136 5.60491461 12.47034494 -1.1875 11.5 C-2.115625 11.335 -3.04375 11.17 -4 11 C-4 10.34 -4 9.68 -4 9 C3.59 8.67 11.18 8.34 19 8 C19.66 6.02 20.32 4.04 21 2 C19.10314453 2.03480469 19.10314453 2.03480469 17.16796875 2.0703125 C15.5078184 2.08907126 13.84766167 2.10727135 12.1875 2.125 C11.35412109 2.14175781 10.52074219 2.15851563 9.66210938 2.17578125 C8.85966797 2.18222656 8.05722656 2.18867188 7.23046875 2.1953125 C6.12288208 2.21102295 6.12288208 2.21102295 4.99291992 2.22705078 C3 2 3 2 0 0 Z " fill="#EEEEEE" transform="translate(302,394)"/>
<path d="M0 0 C6.6 0 13.2 0 20 0 C20.1953125 3.48307292 20.390625 6.96614583 20.5859375 10.44921875 C20.96924145 13.73623089 21.42399156 16.10355205 23 19 C26.02982306 20.37189827 26.02982306 20.37189827 29 21 C29 21.33 29 21.66 29 22 C23.50581395 22.36627907 23.50581395 22.36627907 21.1875 20.6875 C17.50745495 15.45796229 18.94466498 8.03151772 19 2 C13.39 2 7.78 2 2 2 C2.04125 4.0625 2.0825 6.125 2.125 8.25 C2.20868087 12.43404325 2.25998595 15.40537669 0 19 C-0.66 18.67 -1.32 18.34 -2 18 C-1.67 17.34 -1.34 16.68 -1 16 C-0.76759495 13.28573859 -0.58091198 10.59366233 -0.4375 7.875 C-0.293125 5.27625 -0.14875 2.6775 0 0 Z " fill="#DDDDDD" transform="translate(187,383)"/>
<path d="M0 0 C2.72869407 0.03287583 5.2966618 0.56397771 8 1 C9.14544072 7.29992398 9.34294666 13.6050535 9 20 C8.67 20.33 8.34 20.66 8 21 C7.84285346 22.63256758 7.74914586 24.27135338 7.68359375 25.91015625 C7.64169922 26.89951172 7.59980469 27.88886719 7.55664062 28.90820312 C7.51732422 29.94912109 7.47800781 30.99003906 7.4375 32.0625 C7.39431641 33.10728516 7.35113281 34.15207031 7.30664062 35.22851562 C7.20018775 37.81886884 7.0981724 40.40932186 7 43 C6.67 43 6.34 43 6 43 C6 29.8 6 16.6 6 3 C3.36 2.67 0.72 2.34 -2 2 C-1.34 1.34 -0.68 0.68 0 0 Z " fill="#DADADA" transform="translate(145,362)"/>
<path d="M0 0 C0 0.99 0 1.98 0 3 C-3.25389988 5.16926659 -4.13395957 5.24080049 -7.88671875 5.1953125 C-8.82451172 5.18886719 -9.76230469 5.18242187 -10.72851562 5.17578125 C-12.19321289 5.15064453 -12.19321289 5.15064453 -13.6875 5.125 C-14.67556641 5.11597656 -15.66363281 5.10695313 -16.68164062 5.09765625 C-19.12133765 5.0740843 -21.56054697 5.04118022 -24 5 C-23.34964382 7.99427854 -23.34964382 7.99427854 -22 11 C-19.85635805 12.14414592 -19.85635805 12.14414592 -17.375 12.375 C-16.55773437 12.50648438 -15.74046875 12.63796875 -14.8984375 12.7734375 C-14.27195312 12.84820312 -13.64546875 12.92296875 -13 13 C-13 13.33 -13 13.66 -13 14 C-14.4370809 14.05422947 -15.87475462 14.09289723 -17.3125 14.125 C-18.11300781 14.14820313 -18.91351562 14.17140625 -19.73828125 14.1953125 C-22 14 -22 14 -25 12 C-25.51171875 9.8359375 -25.51171875 9.8359375 -25.6875 7.375 C-25.75324219 6.55773437 -25.81898438 5.74046875 -25.88671875 4.8984375 C-25.92410156 4.27195312 -25.96148438 3.64546875 -26 3 C-24.97845825 2.970271 -24.97845825 2.970271 -23.9362793 2.93994141 C-20.85296083 2.84473017 -17.77032351 2.73503534 -14.6875 2.625 C-13.61564453 2.5940625 -12.54378906 2.563125 -11.43945312 2.53125 C-9.89741211 2.47324219 -9.89741211 2.47324219 -8.32421875 2.4140625 C-6.9024231 2.36693115 -6.9024231 2.36693115 -5.4519043 2.31884766 C-2.7469731 2.1510949 -2.7469731 2.1510949 0 0 Z " fill="#D0D0D0" transform="translate(557,391)"/>
<path d="M0 0 C0.66 0.33 1.32 0.66 2 1 C2.04254356 2.99954746 2.04080783 5.00041636 2 7 C1 8 1 8 -2.23461914 8.11352539 C-3.66814126 8.11336631 -5.10166912 8.10767407 -6.53515625 8.09765625 C-7.66503212 8.09553383 -7.66503212 8.09553383 -8.81773376 8.09336853 C-11.2326956 8.08775376 -13.64756601 8.07519883 -16.0625 8.0625 C-17.69596221 8.0574869 -19.32942586 8.05292366 -20.96289062 8.04882812 C-24.97529585 8.03777954 -28.98763241 8.02050506 -33 8 C-33 7.34 -33 6.68 -33 6 C-17.655 5.505 -17.655 5.505 -2 5 C-1.34 3.35 -0.68 1.7 0 0 Z " fill="#F3F3F3" transform="translate(607,398)"/>
<path d="M0 0 C0.33 0 0.66 0 1 0 C1 10.23 1 20.46 1 31 C11.36649904 30.42157876 11.36649904 30.42157876 20 27 C19 30 19 30 16.83203125 31.67578125 C13.52808824 33.22065943 11.31334322 33.30703329 7.6875 33.1875 C6.08455078 33.14689453 6.08455078 33.14689453 4.44921875 33.10546875 C3.23685547 33.05326172 3.23685547 33.05326172 2 33 C1.67 35.64 1.34 38.28 1 41 C0.67 41 0.34 41 0 41 C0 27.47 0 13.94 0 0 Z " fill="#D7D7D7" transform="translate(474,363)"/>
<path d="M0 0 C0.33 0 0.66 0 1 0 C1 2.31 1 4.62 1 7 C-10.55 7 -22.1 7 -34 7 C-34 6.34 -34 5.68 -34 5 C-22.78 4.67 -11.56 4.34 0 4 C0 2.68 0 1.36 0 0 Z " fill="#EFEFEF" transform="translate(259,399)"/>
<path d="M0 0 C0.99 0 1.98 0 3 0 C3.19672365 1.72814161 3.38196799 3.45759197 3.5625 5.1875 C3.66691406 6.15042969 3.77132812 7.11335938 3.87890625 8.10546875 C3.99758751 10.94233377 3.67765639 13.25423671 3 16 C2.01 16 1.02 16 0 16 C0 21.28 0 26.56 0 32 C-0.33 32 -0.66 32 -1 32 C-1.02901401 27.41667994 -1.04680348 22.83338349 -1.0625 18.25 C-1.07087891 16.94804687 -1.07925781 15.64609375 -1.08789062 14.3046875 C-1.09111328 13.05429687 -1.09433594 11.80390625 -1.09765625 10.515625 C-1.10289307 9.36352539 -1.10812988 8.21142578 -1.11352539 7.02441406 C-1.01804485 4.48073036 -0.74917261 2.41601687 0 0 Z " fill="#639FC3" transform="translate(145,256)"/>
<path d="M0 0 C0.33 0 0.66 0 1 0 C1.3125 2.25 1.3125 2.25 1 5 C-1.25 7.3125 -1.25 7.3125 -4 9 C-5.32 9 -6.64 9 -8 9 C-8.70125 8.175 -9.4025 7.35 -10.125 6.5 C-13.77779395 3.32365744 -15.91396787 3.3409821 -20.6171875 3.55859375 C-23.89574153 4.16593245 -25.74577539 5.59549375 -28 8 C-28 5 -28 5 -26.125 2.8125 C-21.80090193 0.30452312 -17.90153396 0.31458224 -13 1 C-9.70166248 2.26269093 -9.04625931 2.93061104 -7 6 C-3.18586998 4.8321734 -3.18586998 4.8321734 -0.6875 1.875 C-0.460625 1.25625 -0.23375 0.6375 0 0 Z " fill="#E8E8E8" transform="translate(759,361)"/>
<path d="M0 0 C0.33 1.32 0.66 2.64 1 4 C-0.11242065 4.029729 -0.11242065 4.029729 -1.24731445 4.06005859 C-4.60273834 4.15522928 -7.95753286 4.26494094 -11.3125 4.375 C-12.47974609 4.4059375 -13.64699219 4.436875 -14.84960938 4.46875 C-16.52700195 4.52675781 -16.52700195 4.52675781 -18.23828125 4.5859375 C-19.7857605 4.63306885 -19.7857605 4.63306885 -21.36450195 4.68115234 C-24.22843236 4.82674629 -24.22843236 4.82674629 -27 7 C-26.34 5.35 -25.68 3.7 -25 2 C-16.75 2 -8.5 2 0 2 C0 1.34 0 0.68 0 0 Z " fill="#E5E5E5" transform="translate(566,361)"/>
<path d="M0 0 C1 2 2 4 3 6 C12.20692462 6.39804845 12.20692462 6.39804845 21 4 C21 4.99 21 5.98 21 7 C16.2596997 9.37015015 11.25669357 10.06052114 6 10 C2.44567525 8.66712822 1.40985681 7.76382406 -0.375 4.4375 C-1 2 -1 2 0 0 Z " fill="#EBEBEB" transform="translate(476,396)"/>
<path d="M0 0 C7.59 0 15.18 0 23 0 C22.67 2.31 22.34 4.62 22 7 C21.01 7.495 21.01 7.495 20 8 C20.33 6.02 20.66 4.04 21 2 C19.10314453 2.03480469 19.10314453 2.03480469 17.16796875 2.0703125 C15.5078184 2.08907126 13.84766167 2.10727135 12.1875 2.125 C11.35412109 2.14175781 10.52074219 2.15851563 9.66210938 2.17578125 C8.85966797 2.18222656 8.05722656 2.18867188 7.23046875 2.1953125 C6.12288208 2.21102295 6.12288208 2.21102295 4.99291992 2.22705078 C3 2 3 2 0 0 Z " fill="#C4C4C4" transform="translate(302,394)"/>
<path d="M0 0 C0.5662207 0.31694824 1.13244141 0.63389648 1.71582031 0.96044922 C4.1089022 2.04956238 5.9405321 2.38626655 8.546875 2.6328125 C9.39121094 2.71660156 10.23554687 2.80039062 11.10546875 2.88671875 C12.41451172 3.00466797 12.41451172 3.00466797 13.75 3.125 C14.63816406 3.21136719 15.52632812 3.29773438 16.44140625 3.38671875 C18.62702936 3.59823066 20.81308238 3.80240227 23 4 C23.33 5.32 23.66 6.64 24 8 C23.34 8 22.68 8 22 8 C22 7.34 22 6.68 22 6 C21.16597656 6.03480469 20.33195313 6.06960938 19.47265625 6.10546875 C12.23184082 6.27964644 6.71531509 5.7316536 0 3 C0 2.01 0 1.02 0 0 Z " fill="#EBEBEB" transform="translate(534,379)"/>
<path d="M0 0 C0.66 0.66 1.32 1.32 2 2 C0.671875 3.984375 0.671875 3.984375 -2 6 C-5.59068254 6.51556954 -9.13183171 6.37526282 -12.75 6.25 C-14.22533203 6.22292969 -14.22533203 6.22292969 -15.73046875 6.1953125 C-18.15463783 6.14824126 -20.57682059 6.08250742 -23 6 C-23 5.34 -23 4.68 -23 4 C-22.11477661 3.97812622 -22.11477661 3.97812622 -21.21166992 3.95581055 C-18.53628771 3.88131156 -15.86215108 3.78466005 -13.1875 3.6875 C-11.7943457 3.65366211 -11.7943457 3.65366211 -10.37304688 3.61914062 C-9.48037109 3.58369141 -8.58769531 3.54824219 -7.66796875 3.51171875 C-6.84578857 3.48553467 -6.0236084 3.45935059 -5.17651367 3.43237305 C-2.57393468 2.91536044 -1.66089283 2.01797305 0 0 Z " fill="#F2F2F2" transform="translate(800,358)"/>
<path d="M0 0 C2.22808159 -0.10853983 4.45769932 -0.18583307 6.6875 -0.25 C7.92886719 -0.29640625 9.17023437 -0.3428125 10.44921875 -0.390625 C14.57917723 0.06371587 16.17361944 1.00232364 19 4 C19.3125 7.25 19.3125 7.25 19 10 C18.67 10 18.34 10 18 10 C17.896875 9.21625 17.79375 8.4325 17.6875 7.625 C17.22404978 4.66954819 17.22404978 4.66954819 14 3 C10.80193335 2.5396236 10.80193335 2.5396236 7.3125 2.375 C5.54326172 2.26285156 5.54326172 2.26285156 3.73828125 2.1484375 C2.83464844 2.09945313 1.93101562 2.05046875 1 2 C1 5.3 1 8.6 1 12 C0.67 12 0.34 12 0 12 C0 8.04 0 4.08 0 0 Z " fill="#E1E1E1" transform="translate(625,362)"/>
<path d="M0 0 C0.66 0.66 1.32 1.32 2 2 C0.671875 3.984375 0.671875 3.984375 -2 6 C-5.59068254 6.51556954 -9.13183171 6.37526282 -12.75 6.25 C-14.22533203 6.22292969 -14.22533203 6.22292969 -15.73046875 6.1953125 C-18.15463783 6.14824126 -20.57682059 6.08250742 -23 6 C-23.33 5.34 -23.66 4.68 -24 4 C-23.06933716 3.97812622 -23.06933716 3.97812622 -22.11987305 3.95581055 C-19.30845367 3.88133412 -16.49822251 3.78467436 -13.6875 3.6875 C-12.71103516 3.66494141 -11.73457031 3.64238281 -10.72851562 3.61914062 C-9.79072266 3.58369141 -8.85292969 3.54824219 -7.88671875 3.51171875 C-6.59060669 3.47244263 -6.59060669 3.47244263 -5.26831055 3.43237305 C-2.59786013 2.92334628 -1.68988817 2.07670092 0 0 Z " fill="#F1F0F1" transform="translate(258,358)"/>
<path d="M0 0 C0.33 0 0.66 0 1 0 C1.04898437 1.29035156 1.09796875 2.58070313 1.1484375 3.91015625 C1.22351803 5.62762347 1.29906354 7.34507041 1.375 9.0625 C1.4059375 9.91005859 1.436875 10.75761719 1.46875 11.63085938 C1.78906029 20.29647114 1.78906029 20.29647114 5.5078125 27.92578125 C6.04148437 28.38339844 6.57515625 28.84101563 7.125 29.3125 C8.07375 30.199375 9.0225 31.08625 10 32 C10 32.66 10 33.32 10 34 C8.0625 33.1875 8.0625 33.1875 6 32 C5.67 31.01 5.34 30.02 5 29 C4.34 29 3.68 29 3 29 C0.0615511 22.45983027 -0.37895557 17.11821985 -0.1875 10 C-0.17396484 9.03449219 -0.16042969 8.06898438 -0.14648438 7.07421875 C-0.11145458 4.71554575 -0.06234084 2.35808229 0 0 Z " fill="#D1D1D1" transform="translate(369,369)"/>
<path d="M0 0 C1.2065625 0.0309375 1.2065625 0.0309375 2.4375 0.0625 C2.4375 0.7225 2.4375 1.3825 2.4375 2.0625 C0.7875 2.0625 -0.8625 2.0625 -2.5625 2.0625 C-2.2325 12.9525 -1.9025 23.8425 -1.5625 35.0625 C-3.0475 35.5575 -3.0475 35.5575 -4.5625 36.0625 C-4.44455038 31.09610043 -4.32032482 26.12991349 -4.19018555 21.16381836 C-4.14677561 19.47310701 -4.10510511 17.78235009 -4.06518555 16.09155273 C-4.00762906 13.66636394 -3.94389351 11.24140585 -3.87890625 8.81640625 C-3.86219376 8.05598526 -3.84548126 7.29556427 -3.82826233 6.51210022 C-3.64541533 0.08891257 -3.64541533 0.08891257 0 0 Z " fill="#B5B5B5" transform="translate(449.5625,351.9375)"/>
<path d="M0 0 C0.33 0 0.66 0 1 0 C1.33266291 6.20970773 0.45029331 10.28264895 -2 16 C-2.66 16 -3.32 16 -4 16 C-4.33 16.99 -4.66 17.98 -5 19 C-7.70879335 20.35439668 -10.00933268 20.06501451 -13 20 C-13 19.34 -13 18.68 -13 18 C-11.88625 17.731875 -10.7725 17.46375 -9.625 17.1875 C-5.78159049 16.34190981 -5.78159049 16.34190981 -4 13 C-3.34 13 -2.68 13 -2 13 C-1.34 8.71 -0.68 4.42 0 0 Z " fill="#E1E1E1" transform="translate(567,385)"/>
<path d="M0 0 C0 0.99 0 1.98 0 3 C-3.74415882 5.98004477 -6.61344489 6.3424139 -11.3125 6.1875 C-12.91544922 6.14689453 -12.91544922 6.14689453 -14.55078125 6.10546875 C-15.35902344 6.07066406 -16.16726563 6.03585937 -17 6 C-17.33 6.66 -17.66 7.32 -18 8 C-18 6.68 -18 5.36 -18 4 C-17.20335937 3.96261719 -16.40671875 3.92523438 -15.5859375 3.88671875 C-9.68223426 3.52043059 -5.03056497 3.21397206 0 0 Z " fill="#C7C7C7" transform="translate(493,390)"/>
<path d="M0 0 C11.52164009 -0.55353075 11.52164009 -0.55353075 17 3 C17 3.66 17 4.32 17 5 C11.39 4.34 5.78 3.68 0 3 C0 2.01 0 1.02 0 0 Z " fill="#F3F3F3" transform="translate(475,361)"/>
<path d="M0 0 C1.93681161 -0.08107583 3.8745934 -0.13922475 5.8125 -0.1875 C6.89144531 -0.22230469 7.97039063 -0.25710938 9.08203125 -0.29296875 C12 0 12 0 13.875 1.3125 C15.55634713 3.8345207 15.19651668 6.05224987 15 9 C14.01 9.495 14.01 9.495 13 10 C13.020625 9.236875 13.04125 8.47375 13.0625 7.6875 C13.12942841 4.89814214 13.12942841 4.89814214 12 2 C8.37 2 4.74 2 1 2 C0.67 1.34 0.34 0.68 0 0 Z " fill="#E4E4E4" transform="translate(820,383)"/>
<path d="M0 0 C0.33 0.99 0.66 1.98 1 3 C-4.37330889 6.39366878 -8.86946489 6.32712342 -15 6 C-15.33 5.34 -15.66 4.68 -16 4 C-15.01257813 3.87882812 -14.02515625 3.75765625 -13.0078125 3.6328125 C-11.08582031 3.38144531 -11.08582031 3.38144531 -9.125 3.125 C-7.84882812 2.96257812 -6.57265625 2.80015625 -5.2578125 2.6328125 C-1.92835773 2.30122527 -1.92835773 2.30122527 0 0 Z " fill="#EAEAEA" transform="translate(599,379)"/>
<path d="M0 0 C0.66 0.33 1.32 0.66 2 1 C2 2.65 2 4.3 2 6 C-1.96 6 -5.92 6 -10 6 C-10.33 5.01 -10.66 4.02 -11 3 C-7.04 3.33 -3.08 3.66 1 4 C0.67 2.68 0.34 1.36 0 0 Z " fill="#DEDEDE" transform="translate(652,400)"/>
<path d="M0 0 C0.66 0 1.32 0 2 0 C2.37125 0.70125 2.7425 1.4025 3.125 2.125 C5.70564504 6.08198906 9.15185475 8.34011813 13 11 C11.1875 11.625 11.1875 11.625 9 12 C8.01 11.34 7.02 10.68 6 10 C6 9.34 6 8.68 6 8 C5.01 7.67 4.02 7.34 3 7 C0 2.66666667 0 2.66666667 0 0 Z " fill="#E6E6E6" transform="translate(284,391)"/>
<path d="M0 0 C0.66 0 1.32 0 2 0 C2.33 0.99 2.66 1.98 3 3 C3.99 3.66 4.98 4.32 6 5 C6 5.66 6 6.32 6 7 C8.31 7.66 10.62 8.32 13 9 C13 9.33 13 9.66 13 10 C7.37581437 9.77503257 4.8279038 8.47912718 1.06640625 4.5703125 C0 3 0 3 0 0 Z " fill="#EAEAEA" transform="translate(419,395)"/>
<path d="M0 0 C1.6396875 0.0928125 1.6396875 0.0928125 3.3125 0.1875 C3.6425 1.1775 3.9725 2.1675 4.3125 3.1875 C0.6825 3.1875 -2.9475 3.1875 -6.6875 3.1875 C-3.6875 0.1875 -3.6875 0.1875 0 0 Z " fill="#EFEFEF" transform="translate(707.6875,402.8125)"/>
<path d="M0 0 C2.64 0 5.28 0 8 0 C8.33 0.99 8.66 1.98 9 3 C5.7 3 2.4 3 -1 3 C-0.67 2.01 -0.34 1.02 0 0 Z " fill="#F2F2F2" transform="translate(466,403)"/>
<path d="M0 0 C0.99 0.99 1.98 1.98 3 3 C3 4.32 3 5.64 3 7 C3.99 7 4.98 7 6 7 C6 6.34 6 5.68 6 5 C6.99 5 7.98 5 9 5 C8.67 5.99 8.34 6.98 8 8 C6.02 8.33 4.04 8.66 2 9 C1.34 6.03 0.68 3.06 0 0 Z " fill="#E6E6E6" transform="translate(670,398)"/>
<path d="M0 0 C0.33 0.99 0.66 1.98 1 3 C-4.16923077 7.92307692 -4.16923077 7.92307692 -8.375 8.3125 C-9.24125 8.209375 -10.1075 8.10625 -11 8 C-10.67 7.34 -10.34 6.68 -10 6 C-8.22265625 5.5078125 -8.22265625 5.5078125 -6.0625 5.125 C-2.69769024 4.45230068 -2.69769024 4.45230068 -0.5 1.875 C-0.335 1.25625 -0.17 0.6375 0 0 Z " fill="#E9E9E9" transform="translate(404,397)"/>
<path d="M0 0 C0.33 0.99 0.66 1.98 1 3 C4.465 2.505 4.465 2.505 8 2 C7 5 7 5 5 6 C3.00039988 6.039992 0.99952758 6.04346799 -1 6 C-0.67 4.02 -0.34 2.04 0 0 Z " fill="#F0F0F0" transform="translate(152,400)"/>
<path d="M0 0 C0.99 1.485 0.99 1.485 2 3 C3.57779382 5.02742418 5.16320999 7.04826525 6.7578125 9.0625 C8 11 8 11 8 14 C4.72952316 10.90630569 1.98268225 8.0697162 0 4 C0 2.68 0 1.36 0 0 Z " fill="#E1E1E1" transform="translate(719,387)"/>
<path d="M0 0 C5.61 0 11.22 0 17 0 C17 1.32 17 2.64 17 4 C16.34 4 15.68 4 15 4 C15 3.01 15 2.02 15 1 C10.05 1 5.1 1 0 1 C0 0.67 0 0.34 0 0 Z " fill="#EEEEEE" transform="translate(584,374)"/>
<path d="M0 0 C0.66 0.33 1.32 0.66 2 1 C2.0825 1.639375 2.165 2.27875 2.25 2.9375 C2.4975 3.618125 2.745 4.29875 3 5 C5.99615946 6.3045656 5.99615946 6.3045656 9 7 C9 7.33 9 7.66 9 8 C3.52887538 8.36474164 3.52887538 8.36474164 1.1875 6.75 C-0.12817082 4.81111669 -0.6908485 3.31863625 -1 1 C-0.67 0.67 -0.34 0.34 0 0 Z " fill="#E9E9E9" transform="translate(207,397)"/>
<path d="M0 0 C0.75 1.625 0.75 1.625 1 4 C-1.96296296 9.59670782 -1.96296296 9.59670782 -5.25 10.875 C-5.8275 10.91625 -6.405 10.9575 -7 11 C-7 10.34 -7 9.68 -7 9 C-5.68 8.67 -4.36 8.34 -3 8 C-2.87625 7.4225 -2.7525 6.845 -2.625 6.25 C-1.99351176 3.97664233 -1.11141809 2.0746471 0 0 Z " fill="#E8E8E8" transform="translate(454,391)"/>
<path d="M0 0 C0.33 0 0.66 0 1 0 C1.04898438 0.64066406 1.09796875 1.28132813 1.1484375 1.94140625 C1.6040145 7.21196085 2.3597379 11.96986288 4 17 C1.27475359 14.39324256 0.03732993 13.07808847 -0.09765625 9.1796875 C-0.08605469 8.08914063 -0.07445312 6.99859375 -0.0625 5.875 C-0.05347656 4.77929688 -0.04445313 3.68359375 -0.03515625 2.5546875 C-0.02355469 1.71164062 -0.01195312 0.86859375 0 0 Z " fill="#CFCECF" transform="translate(806,363)"/>
<path d="M0 0 C-2.39763185 2.39763185 -3.33273498 2.34280586 -6.625 2.625 C-7.44226563 2.69976562 -8.25953125 2.77453125 -9.1015625 2.8515625 C-9.72804687 2.90054687 -10.35453125 2.94953125 -11 3 C-11.33 2.34 -11.66 1.68 -12 1 C-10.37681021 0.63762737 -8.7513642 0.28534843 -7.125 -0.0625 C-6.22007812 -0.25972656 -5.31515625 -0.45695312 -4.3828125 -0.66015625 C-2 -1 -2 -1 0 0 Z " fill="#EFEFEF" transform="translate(173,362)"/>
<path d="M0 0 C0.66 0.66 1.32 1.32 2 2 C0 4 0 4 -3.125 4.125 C-4.548125 4.063125 -4.548125 4.063125 -6 4 C-6 3.01 -6 2.02 -6 1 C-3.125 0.375 -3.125 0.375 0 0 Z " fill="#EEEEEE" transform="translate(622,402)"/>
<path d="M0 0 C0.66 0.33 1.32 0.66 2 1 C2 2.98 2 4.96 2 7 C0.35 7 -1.3 7 -3 7 C-2.01 4.69 -1.02 2.38 0 0 Z " fill="#DBDBDB" transform="translate(607,398)"/>
<path d="M0 0 C0.66 0.33 1.32 0.66 2 1 C0.02 3.31 -1.96 5.62 -4 8 C-4.33 7.34 -4.66 6.68 -5 6 C-3.78741495 2.76643985 -2.98715542 1.99143695 0 0 Z " fill="#D0D0D0" transform="translate(812,355)"/>
<path d="M0 0 C-0.33 1.32 -0.66 2.64 -1 4 C-2.98 4.33 -4.96 4.66 -7 5 C-2.25 0 -2.25 0 0 0 Z " fill="#54A4D2" transform="translate(332,90)"/>
<path d="M0 0 C0.33 0.66 0.66 1.32 1 2 C-0.55555556 6.55555556 -0.55555556 6.55555556 -2 8 C-3.66617115 8.04063832 -5.33388095 8.042721 -7 8 C-6.21625 7.4225 -5.4325 6.845 -4.625 6.25 C-2.19952756 4.17102363 -1.14305583 2.90959667 0 0 Z " fill="#E1E1E1" transform="translate(794,375)"/>
<path d="M0 0 C2.97 0.99 5.94 1.98 9 3 C9 3.33 9 3.66 9 4 C2.47692308 4.36923077 2.47692308 4.36923077 0.0625 2.5 C-0.4634375 1.7575 -0.4634375 1.7575 -1 1 C-0.67 0.67 -0.34 0.34 0 0 Z " fill="#E9E9E9" transform="translate(810,379)"/>
<path d="M0 0 C-0.33 0.99 -0.66 1.98 -1 3 C-3.31 2.67 -5.62 2.34 -8 2 C-5.44123378 -0.55876622 -3.37797483 -1.68898741 0 0 Z " fill="#56A2CF" transform="translate(358,77)"/>
</svg>
